<svg viewBox="0 0 400 400" xmlns="http://www.w3.org/2000/svg">
  <!-- Background circle -->
  <circle cx="200" cy="200" r="200" fill="#6366f1"/>
  
  <!-- Gradient background -->
  <defs>
    <linearGradient id="grad1" x1="0%" y1="0%" x2="100%" y2="100%">
      <stop offset="0%" style="stop-color:#8b5cf6;stop-opacity:1" />
      <stop offset="100%" style="stop-color:#6366f1;stop-opacity:1" />
    </linearGradient>
  </defs>
  <circle cx="200" cy="200" r="200" fill="url(#grad1)"/>
  
  <!-- Person illustration -->
  <!-- Head -->
  <circle cx="200" cy="150" r="50" fill="#fbbf24"/>
  
  <!-- Hair -->
  <path d="M 150 150 Q 150 100 200 100 Q 250 100 250 150" fill="#1f2937"/>
  
  <!-- Body -->
  <rect x="160" y="195" width="80" height="100" rx="10" fill="#3b82f6"/>
  
  <!-- Arms -->
  <rect x="130" y="210" width="30" height="70" rx="15" fill="#3b82f6"/>
  <rect x="240" y="210" width="30" height="70" rx="15" fill="#3b82f6"/>
  
  <!-- Laptop/Code symbol -->
  <rect x="165" y="250" width="70" height="45" rx="3" fill="#1f2937"/>
  <rect x="170" y="255" width="60" height="35" fill="#10b981"/>
  
  <!-- Code lines -->
  <line x1="175" y1="265" x2="215" y2="265" stroke="#ffffff" stroke-width="2"/>
  <line x1="175" y1="273" x2="205" y2="273" stroke="#ffffff" stroke-width="2"/>
  <line x1="175" y1="281" x2="220" y2="281" stroke="#ffffff" stroke-width="2"/>
  
  <!-- Decorative elements -->
  <circle cx="80" cy="80" r="8" fill="#fbbf24" opacity="0.6"/>
  <circle cx="320" cy="100" r="12" fill="#ec4899" opacity="0.6"/>
  <circle cx="340" cy="280" r="10" fill="#10b981" opacity="0.6"/>
  <circle cx="60" cy="320" r="15" fill="#8b5cf6" opacity="0.6"/>
</svg>